<?xml version="1.0" encoding="UTF-8"?><svg xmlns="http://www.w3.org/2000/svg" xmlns:xlink="http://www.w3.org/1999/xlink" height="161.2" preserveAspectRatio="xMidYMid meet" version="1.1" viewBox="113.8 132.0 208.5 161.2" width="208.5" zoomAndPan="magnify">
 <g id="surface1">
  <g id="change1_1"><path d="m270.71 267.85c-37.35 24.23-83.67 19.15-103.48-11.37-19.8-30.51-5.57-74.89 31.77-99.13 37.35-24.23 83.68-19.15 103.48 11.36 19.8 30.52 5.57 74.9-31.77 99.14" fill="#568738"/></g>
  <g id="change2_1"><path d="m245.51 212.6c0 44.52-29.49 80.61-65.86 80.61s-65.86-36.09-65.86-80.61 29.49-80.62 65.86-80.62 65.86 36.1 65.86 80.62" fill="#6eac47"/></g>
  <g id="change3_1"><path d="m199.82 149.32c0 8.09-9.03 14.65-20.17 14.65s-20.17-6.56-20.17-14.65c0-8.1 9.03-14.66 20.17-14.66s20.17 6.56 20.17 14.66" fill="#d3395b"/></g>
  <g id="change4_1"><path d="m196.05 152.05c0 6.59-7.34 11.92-16.4 11.92s-16.41-5.33-16.41-11.92c0-6.58 7.35-11.92 16.41-11.92s16.4 5.34 16.4 11.92" fill="#b2304b"/></g>
 </g>
</svg>