<?xml version="1.0" encoding="UTF-8" standalone="no"?><svg xmlns="http://www.w3.org/2000/svg" xmlns:xlink="http://www.w3.org/1999/xlink" fill="#000000" height="364.2" preserveAspectRatio="xMidYMid meet" version="1" viewBox="-0.1 -0.0 457.5 364.2" width="457.5" zoomAndPan="magnify"><g id="change1_1"><path d="M229.29953,30.7117672c-0.1029663-0.010498-0.2058105-0.0216675-0.3085938-0.0330811 c0-8.765564,0-17.5293579,0-26.2950439c0-1.3046875,0-2.6132812,0-3.9179688c0-0.2734375,0.2773438-0.4804688,0.5351562-0.4648438 c0.3085938,0.0195312,0.484375,0.3046875,0.4648438,0.59375c0,10.0090942,0,20.012146,0,30.0210571 C229.7580872,30.6348019,229.5264587,30.666235,229.29953,30.7117672z M456.818573,212.3787537c-1.765625,0-3.5351562,0-5.3007812,0 c-5.9512939,0-11.9080811,0-17.859314,0c0.0029297,0.3442993-0.0452271,0.6796265-0.1375732,1 c7.7092896,0,15.4125977,0,23.1218872,0c0.0195312,0.0039062,0.0390625,0.0039062,0.0585938,0.0039062 c0.375,0,0.71875-0.1757812,0.7460938-0.46875C457.4670105,212.6560974,457.1896667,212.3787537,456.818573,212.3787537z M69.7859192,213.3777161c0.02771-0.2762451,0.0657959-0.5509644,0.1068726-0.8242188 c0.008606-0.0587769,0.0175781-0.1173706,0.0269775-0.1757812c-0.3448486,0-0.6899414,0-1.03479,0 c-6.0742188,0-12.1523438,0-18.2265625,0c0.2695312,0.3164062,0.5,0.6523438,0.6992188,1 C57.5003357,213.3777161,63.6436462,213.3777161,69.7859192,213.3777161z M43.851532,213.3792419 c0.0942993-0.3579102,0.2483521-0.6930542,0.4494019-1c-8.1390381,0-16.279356,0-24.4193707,0 c-0.3671875,0-0.6953125,0.1796875-0.7226562,0.4648438c-0.0195312,0.2578125,0.2578125,0.5351562,0.6289062,0.5351562 c2.5625,0,5.125,0,7.6875,0C32.9338684,213.3792419,38.393158,213.3792419,43.851532,213.3792419z M144.7708435,89.5288467 c-3.1228638-4.5045776-6.2479858-9.012207-9.3709106-13.5168457c-0.2695312,0.1953125-0.546875,0.3828125-0.8242188,0.5664062 c3.0896606,4.4561157,6.1808472,8.9147339,9.2704468,13.3708496 C144.1547546,89.8099136,144.4628601,89.6696548,144.7708435,89.5288467z M131.3437805,70.1637955 c-2.0072021-2.8956299-4.0141602-5.7907104-6.0214844-8.6862831c-0.2785034,0.1824951-0.5570068,0.3652954-0.8353271,0.5479736 c1.996582,2.8795815,3.9932251,5.7592812,5.989624,8.6383095C130.7656555,70.4958267,131.054718,70.327858,131.3437805,70.1637955z M111.148468,42.7926979c3.3399048,4.8134766,6.6784668,9.6275635,10.0167847,14.4420776 c0.2946167-0.1593628,0.5889893-0.319397,0.8829346-0.4800415c-4.0780029-5.8821411-8.1558838-11.7634888-12.2356567-17.6456299 c-0.1484375-0.2539062-0.4570312-0.3867188-0.7226562-0.2265625c-0.21875,0.1367188-0.328125,0.4648438-0.171875,0.6875 C109.6601868,40.6442604,110.4062805,41.7184792,111.148468,42.7926979z M370.1109924,117.5630264 c2.1807861-1.5120239,4.3605347-3.0235596,6.5400391-4.5348511c-0.02771-0.0430908-0.0553589-0.0861206-0.0830078-0.1292114 c-0.1522827-0.2373657-0.3045654-0.4744873-0.456665-0.711792c-2.1976929,1.5236816-4.3950806,3.0469971-6.5941162,4.571167 c0.0351562,0.046875,0.0703125,0.09375,0.1054688,0.1367188 C369.7906799,117.1177139,369.9508362,117.3403702,370.1109924,117.5630264z M387.6813049,105.3794327 c-0.0546875-0.3710938-0.1054688-0.7421875-0.1484375-1.1132812c-2.6915283,1.8672485-5.3814697,3.7329102-8.071228,5.5980835 c0.1859741,0.276001,0.3725586,0.5515137,0.5595703,0.8268433 C382.5740662,108.9207535,385.1267395,107.1506119,387.6813049,105.3794327z M402.3426819,95.2147598 c4.9932861-3.461853,9.9803467-6.9194946,14.9736938-10.3813477c0.3359375-0.203125,0.5507812-0.5703125,0.3945312-0.8359375 c-0.1289062-0.2265625-0.515625-0.2929688-0.8203125-0.0820312c-1.4492188,1.0039062-2.90625,2.0117188-4.3554688,3.0195312 c-3.6050415,2.4993286-7.2045898,4.994751-10.8095703,7.4940186c0.1207275,0.1506348,0.2406616,0.3024902,0.3603516,0.4552002 C402.1719055,94.9940567,402.2573547,95.1042862,402.3426819,95.2147598z M197.4781189,65.7198257 c0.25-0.0652466,0.500061-0.1295166,0.7501221-0.1931763c-1.4697266-6.6709633-2.9404297-13.3468666-4.4102783-20.017765 c-0.3085938,0.1328125-0.6210938,0.2578125-0.9375,0.375c1.4602051,6.6303711,2.9208984,13.2618408,4.3812256,19.8922768 C197.3339539,65.7575455,197.4060974,65.7387466,197.4781189,65.7198257z M190.4242249,34.3056374 c0.2851562-0.1054688,0.5742188-0.2070312,0.859375-0.3085938c-1.3226929-6.0099468-2.6468506-12.0213604-3.9707031-18.0314922 c-0.0228271-0.00354-0.0455933-0.0072632-0.0683594-0.0114746c-0.0234375-0.0039062-0.046875-0.0117188-0.0703125-0.015625 c-0.2839355,0.0643311-0.5640259,0.1348877-0.8447266,0.2039185c1.335022,6.0628052,2.6699219,12.1264038,4.0048828,18.1906109 C190.3656311,34.3212624,190.3929749,34.3134499,190.4242249,34.3056374z M184.7449036,8.9468136 c0.3185425-0.0933838,0.6425781-0.1729126,0.9678955-0.2461548c-0.2927856-1.3295903-0.5856934-2.6594853-0.878418-3.98877 c-0.0390625-0.2890625-0.2734375-0.5273438-0.5820312-0.4804688c-0.2539062,0.0390625-0.4804688,0.3007812-0.421875,0.5703125 c0.28125,1.2734375,0.5625,2.5507812,0.84375,3.8242192C184.6978455,8.7331295,184.721283,8.8396358,184.7449036,8.9468136z M25.2043171,256.7354431c-0.3632812,0.078125-0.6445312,0.3242188-0.609375,0.609375 c0.0273438,0.21875,0.2773438,0.4023438,0.5742188,0.4023438c0.0507812,0,0.1015625-0.0039062,0.15625-0.015625 c2.5039062-0.5507812,5.0078125-1.1015625,7.5078106-1.65625c2.3678589-0.5213623,4.7366333-1.043457,7.1049805-1.5655518 c-0.0786133-0.3235474-0.1593628-0.6463013-0.2434692-0.9683228 C34.8644104,254.6057434,30.0335407,255.6700745,25.2043171,256.7354431z M43.1327209,252.783844 c0.0934448,0.3197632,0.1845703,0.6402588,0.2730103,0.9614868c2.6678467-0.5881958,5.3358154-1.1763916,8.001709-1.7637939 c-0.09375-0.3203125-0.1835938-0.6367188-0.2773438-0.9609375C48.4646912,251.6086121,45.7986145,252.1963196,43.1327209,252.783844 z M73.0572815,246.1912537c-3.5736084,0.7877197-7.1470337,1.5751343-10.7208862,2.3624878 c0.1161499,0.3151855,0.2322998,0.630249,0.3484497,0.9453735c7.748291-1.7067871,15.4963989-3.4135742,23.2435303-5.1203613 c-0.1484375-0.3085938-0.3007812-0.6171875-0.4570312-0.921875 C81.3346252,244.3670349,77.1940002,245.2810974,73.0572815,246.1912537z M395.1390686,176.2723083 c2.7932129-0.6165771,5.5855103-1.2322998,8.3781738-1.8477173c-0.0681763-0.3254395-0.1353149-0.6508789-0.2010498-0.9769897 c-2.8065796,0.6178589-5.6127319,1.2353516-8.4193115,1.8520508c0.0742188,0.2890625,0.1445312,0.578125,0.2148438,0.8671875 C395.1195374,176.2019958,395.1273499,176.2371521,395.1390686,176.2723083z M406.5484314,172.7358704 c0.0709229,0.324646,0.1433716,0.6489868,0.2171631,0.9730225c2.6004639-0.5727539,5.2009277-1.1452637,7.8031616-1.7178345 c-0.046875-0.2148438-0.09375-0.4296875-0.1367188-0.6445312c-0.0234375-0.1132812-0.046875-0.2226562-0.0703125-0.3320312 C411.7571716,171.5884094,409.1529846,172.1622009,406.5484314,172.7358704z M451.954071,163.7544861 c0.390625-0.0625,0.7265625-0.3164062,0.6875-0.625c-0.0351562-0.2578125-0.3710938-0.46875-0.7304688-0.3867188 c-1.7226562,0.3789062-3.453125,0.7617188-5.1757812,1.140625c-6.8708496,1.5134277-13.74823,3.0282593-20.6190186,4.541626 c0.1133423,0.3154297,0.2258301,0.6309204,0.336792,0.9470215C434.9548645,167.499176,443.45224,165.6273499,451.954071,163.7544861 z M369.1824646,53.0357399c0.2070312-0.2070312,0.2578125-0.5351562,0.0351562-0.7539062 c-0.1875-0.1796875-0.53125-0.203125-0.7109375,0.0039062c-0.8476562,0.9921875-1.703125,1.984375-2.5507812,2.9726562 c-4.3236694,5.0317383-8.645874,10.0618324-12.9694824,15.0935097c0.2686768,0.1983032,0.5370483,0.3969727,0.8051147,0.5962524 C358.922821,64.9762955,364.0511169,59.0076637,369.1824646,53.0357399z M345.8027649,313.4931335 c0.2366943,0.2034302,0.4790039,0.4116211,0.7157593,0.6150513c0.1533813-0.0952148,0.3065186-0.1904907,0.4595337-0.2866211 c-0.0273438-0.03125-0.0507812-0.0664062-0.078125-0.1015625C346.533783,313.6474304,346.16745,313.5729065,345.8027649,313.4931335 z M331.377655,300.9282532c-0.0183105,0.0405884-0.0371704,0.0806885-0.0563354,0.1206055 c2.0853882,1.7918091,4.1663208,3.579834,6.2516479,5.371582c-0.0039062-0.125-0.0039062-0.25,0.0039062-0.375 c0.0117188-0.2890625,0.0429688-0.5742188,0.0976562-0.859375c-1.9711914-1.6937866-3.9469604-3.3914185-5.9181519-5.0852051 C331.6296082,300.3766785,331.5032043,300.6524963,331.377655,300.9282532z M114.11203,113.143959 c0.010376-0.0073242,0.020752-0.0144043,0.0311279-0.0216675c-1.7246094-1.4818115-3.4510498-2.965271-5.1756592-4.4470825 c-3.4492188-2.9648438-6.9023438-5.9335938-10.3515625-8.8984375c-0.265625,0.2148438-0.5273438,0.4296875-0.7890625,0.6445312 c5.1589966,4.4330444,10.3179321,8.8657227,15.4768066,13.2982178 C113.5716858,113.525856,113.841095,113.3341446,114.11203,113.143959z M76.5756531,82.1606827 c0.2759399-0.2028198,0.5517578-0.4056396,0.8275146-0.6084595c-1.8667603-1.6040649-3.7325439-3.2072754-5.5991821-4.8113403 c-0.28125-0.2421875-0.6484375-0.3203125-0.8515625-0.1210938c-0.1835938,0.1835938-0.1523438,0.5742188,0.1289062,0.8164062 C72.9114685,79.0122452,74.7450867,80.5849991,76.5756531,82.1606827z M252.9341736,3.9264274 c0.0507812-0.2851562-0.09375-0.5859375-0.3984375-0.640625c-0.2578125-0.0390625-0.5546875,0.1367188-0.5820312,0.4101562 c-0.1367188,1.296875-0.2695312,2.5976562-0.40625,3.8945312c-1.9610596,18.8588257-3.9224243,37.7200928-5.8834839,56.578434 c0.3343506-0.0286865,0.6741943-0.0259399,1.0068359-0.0202637 C248.7586365,44.0724831,250.8459778,24.0025997,252.9341736,3.9264274z M457.2096252,238.6330872 c-0.0496826,0.2584839-0.3439941,0.3960571-0.6706543,0.3960571c-0.0583496,0-0.1177979-0.0043945-0.177002-0.0132446 c-72.6799316-7.5587158-145.3599243-15.1188965-218.039856-22.6787109 c31.5722656,11.8253784,63.144043,23.6519165,94.7158203,35.4754639c3.890625,1.4570312,7.7851562,2.9140625,11.6796875,4.375 c-0.0703125,0.125-0.140625,0.25-0.2109375,0.3789062c-0.09375,0.1679688-0.1875,0.3359375-0.28125,0.5039062 c-33.8085327-12.6616821-67.619751-25.3262939-101.4307251-37.9901123 c30.9862061,16.6489868,61.9723511,33.298584,92.958252,49.9463501c-0.0267334,0.0365601-0.0532837,0.0736084-0.0792236,0.111084 c-0.1654053,0.2384644-0.3099365,0.4891357-0.43396,0.7484741c-33.1421509-17.8067017-66.2867432-35.614563-99.4310303-53.4224243 c-0.4781494-0.1790771-0.9562988-0.3581543-1.4344482-0.5372314c-0.1304321-0.0135498-0.2608643-0.0271606-0.3912964-0.0407104 c0.0427856,0.105896,0.0853882,0.211792,0.1281738,0.317749c30.3829956,26.1050415,60.7671509,52.2102051,91.1453857,78.3153076 c-0.1445312,0.3125-0.2929688,0.6289062-0.4375,0.9453125c-29.9636841-25.7466431-59.9279785-51.4943237-89.8931885-77.2420044 c0.432373,1.0714111,0.8648071,2.1428833,1.2971802,3.2142944c3.6854858,5.3156738,7.3701172,10.6307373,11.0557861,15.9465332 c14.4296875,20.8125,28.859375,41.625,43.2890625,62.4414062c1.078125,1.5585938,2.1601562,3.1132812,3.2382812,4.671875 c0.15625,0.2226562,0.046875,0.5507812-0.1757812,0.6875c-0.078125,0.046875-0.1640625,0.0703125-0.2460938,0.0703125 c-0.171875,0-0.3359375-0.09375-0.4414062-0.2460938c-6.8789062-9.921875-13.7578125-19.8476562-20.6367188-29.7695312 c-11.4631348-16.5316162-22.9244385-33.0650635-34.3864746-49.5977783c0.2790527,0.6914673,0.5581665,1.3830566,0.8372192,2.0745239 c8.7147827,21.5898438,17.4257812,43.1796875,26.1367188,64.7695312c3.7226562,9.2265625,7.4453125,18.4492188,11.1679688,27.671875 c0.1015625,0.2539062-0.0585938,0.5507812-0.3085938,0.6367188c-0.0546875,0.0195312-0.109375,0.03125-0.1640625,0.03125 c-0.203125,0-0.3945312-0.1328125-0.4726562-0.3359375c-13.2593994-32.8567505-26.5181885-65.7134399-39.7772827-98.5703125 c-1.2993774-1.8741455-2.5987549-3.7484741-3.8981934-5.6225586c1.7648926,8.0124512,3.5301514,16.0245972,5.295105,24.0372314 c5.4453125,24.7304688,10.8945312,49.4648438,16.34375,74.1992188c0.40625,1.8515625,0.8164062,3.703125,1.2226562,5.5507812 c0.0585938,0.2695312-0.1679688,0.53125-0.421875,0.5703125c-0.0273438,0.0039062-0.0507812,0.0039062-0.078125,0.0039062 c-0.2460938,0-0.4414062-0.1875-0.4921875-0.4257812c-2.5976562-11.7929688-5.1953125-23.5820312-7.7929688-35.375 c-4.935791-22.411438-9.871521-44.8201904-14.807312-67.230896c-0.2396851,2.3043823-0.479248,4.6088257-0.7189331,6.913208 c0,5.7751465,0,11.5500488,0,17.3253174c0,25.3242188,0,50.6523438,0,75.9804688c0,1.8945312,0,3.7890625,0,5.6835938 c0,0.2636719-0.2579956,0.4656372-0.5076294,0.4656372c-0.0092163,0-0.0183716-0.0002441-0.0275269-0.0007935 c-0.2851562-0.0195312-0.4648438-0.2617188-0.4648438-0.5351562c0-12.0742188,0-24.1484375,0-36.2226562 c0-17.6935425,0-35.387085,0-53.0806274c-0.3379517,3.2494507-0.6757812,6.4989624-1.0137939,9.7484131 c-2.6210938,25.1875-5.2382812,50.3789062-7.859375,75.5703125c-0.1953125,1.8867188-0.390625,3.7695312-0.5898438,5.6523438 c-0.0247803,0.2479248-0.2711792,0.4155273-0.5061646,0.4155273c-0.024231,0-0.0482788-0.00177-0.0719604-0.0053711 c-0.28125-0.0507812-0.4375-0.3085938-0.40625-0.5820312c1.2460938-12.0078125,2.4960938-24.0195312,3.7460938-36.0273438 c2.2316284-21.4765015,4.4666138-42.9507446,6.7012939-64.4262695c0-1.8594971,0-3.7189941,0-5.5784912 c-0.3551636,0.6611328-0.7103882,1.3221436-1.0655518,1.9832153c-3.6976929,11.3566284-7.3944092,22.7150269-11.0925293,34.0709839 c-8.6171875,26.4765625-17.2382812,52.9492188-25.859375,79.4257812c-1.9101562,5.8710938-3.8242188,11.7382812-5.734375,17.609375 c-0.0664062,0.2148438-0.2695312,0.3671875-0.484375,0.3671875c-0.0429688,0-0.0859375-0.0078125-0.1289062-0.0195312 c-0.2539062-0.0703125-0.4335938-0.3554688-0.3515625-0.6171875c4.0664062-12.4765625,8.1289062-24.9570312,12.1914062-37.4335938 c8.8320312-27.1328125,17.6640625-54.2578125,26.4960938-81.390625c0.7642212-2.3469238,1.5281372-4.6937256,2.2923584-7.0405884 c-2.3979492,4.4633789-4.7960815,8.9262695-7.1940308,13.3897095 c-11.9882812,22.3085938-23.9726562,44.6171875-35.9609375,66.9296875 c-0.8984375,1.6679688-1.7929688,3.3359375-2.6914062,5.0078125c-0.0824585,0.1524048-0.2512207,0.2280884-0.4204102,0.2280884 c-0.0953369,0-0.1907349-0.0239868-0.2709961-0.0718384c-0.2421875-0.1523438-0.2851562-0.453125-0.15625-0.6914062 c5.7148438-10.6367188,11.4296875-21.2734375,17.1445312-31.9101562 c10.4331055-19.4164429,20.8638916-38.8319092,31.2960815-58.2460938c0.3501587-1.0753784,0.7001953-2.1506348,1.050354-3.2260132 c-5.3689575,6.24823-10.737854,12.4972534-16.1068726,18.7453613 c-16.5039062,19.2070312-33.0078125,38.4179688-49.515625,57.6289062c-1.234375,1.4375-2.46875,2.875-3.703125,4.3125 c-0.0875854,0.1008911-0.2141113,0.1470337-0.3425903,0.1470337c-0.1350708,0-0.2722168-0.0510254-0.3683472-0.1431274 c-0.203125-0.203125-0.1796875-0.5039062-0.0039062-0.7109375c7.8710938-9.15625,15.7382812-18.3164062,23.6054688-27.4726562 c15.267334-17.7677612,30.534729-35.5355835,45.802063-53.3033447 c-26.1094971,18.1013794-52.2181396,36.2034302-78.329834,54.3050537 c-13.9257812,9.6523438-27.8476562,19.3085938-41.7734375,28.9609375c-0.5664062-0.1328125-1.2109375-0.0625-1.7734375,0.0117188 c27.0898438-18.78125,54.1796875-37.5585938,81.2695312-56.34375c13.5650024-9.4041748,27.1292114-18.8080444,40.6940918-28.2121582 c-2.0717773-0.2155151-4.1435547-0.4309082-6.215332-0.6464233c-29.3589478,6.467041-58.7192993,12.9338379-88.0764771,19.4013062 c-11.7617188,2.5898438-23.5273438,5.1796875-35.2890625,7.7734375c-0.1523438-0.3085938-0.3085938-0.6171875-0.4648438-0.921875 c27.015625-5.953125,54.0351562-11.9023438,81.046875-17.8515625c13.2105103-2.9102783,26.4196777-5.819458,39.6295166-8.7293701 c-2.7523193-0.2863159-5.5046387-0.5725708-8.256958-0.8588257c-26.5394897,0-53.0787354,0-79.6187744,0 c-18.9023438,0-37.8046875,0-56.7070312,0c-0.0703125-0.3203125-0.140625-0.6445312-0.2070312-0.9609375 c-0.0039062-0.015625-0.0039062-0.0273438-0.0078125-0.0390625c34.5039062,0,69.0117188,0,103.5195312,0 c7.8024902,0,15.6044922,0,23.4068604,0c-22.8450928-2.3761597-45.6902466-4.7526245-68.5353394-7.128479 c-30.9047241-3.2134399-61.8095703-6.4265137-92.7177734-9.6399536c0.1893921-0.2960815,0.3312378-0.6217041,0.4136963-0.9638062 c10.4532471,1.0869141,20.9055176,2.1741943,31.3587646,3.2600098c35.8007812,3.7265625,71.5976562,7.4492188,107.3984375,11.171875 c10.5785522,1.0999756,21.1571655,2.2003174,31.7356567,3.300354c4.9946899,0,9.9892578,0,14.9839478,0 c-49.2211914-18.435791-98.4425049-36.8712769-147.659729-55.3048096c-0.2269897-0.579834-0.6368408-1.0552368-1.1846924-1.3237915 c-0.0107422-0.0675659-0.0223389-0.1348267-0.0349121-0.2016602 c50.4299316,18.8881836,100.8623657,37.7772217,151.2943115,56.666687c0.1381226-0.0303955,0.2762451-0.0608521,0.4143677-0.0912476 c-28.0144653-15.0516968-56.0286865-30.1033936-84.0418701-45.1541138 c-30.1796875-16.2148438-60.359375-32.4296875-90.5429688-48.6484299c-2.2578125-1.2109375-4.515625-2.4257812-6.7734375-3.6367188 c-0.3242188-0.1757812-0.4414062-0.5507812-0.3007812-0.7695312c0.1601562-0.2382812,0.5351562-0.2421875,0.859375-0.0664062 c14.3867188,7.7304688,28.7773438,15.4609299,43.1640625,23.1913986 c31.7070312,17.0351562,63.4101562,34.0703125,95.1171875,51.1015625 c13.0819092,7.02948,26.1644897,14.0579224,39.2466431,21.0871582 c-23.1970215-19.9321899-46.3952026-39.8644409-69.5895996-59.7958374 c-12.2060547-10.4881592-24.4146118-20.9771118-36.6228638-31.466301c0.2262573-0.2446899,0.4488525-0.4929199,0.6672974-0.744873 c23.9840698,20.6078415,47.9663696,41.2160568,71.9477539,61.820549 c12.1616211,10.4489136,24.3234863,20.9001465,36.4858398,31.3499756c-0.1727905-0.2491455-0.345459-0.4984131-0.5182495-0.7475586 c-27.4486084-39.5934448-54.8981934-79.1879272-82.3496094-118.7813034c0.2763062-0.1867676,0.5542603-0.3703613,0.8346558-0.550293 c27.8915405,40.2316818,55.782959,80.4608688,83.6762695,120.692009c0-0.3947144,0-0.7894897,0-1.1842041 c-0.2139282-0.9712524-0.4277954-1.9424438-0.6417236-2.9136963c-0.3735352-1.6955566-0.7469482-3.3908691-1.1204224-5.0863647 c-17.1203613-42.425415-34.2409058-84.8510056-51.361145-127.2757492c0.3015747-0.1414185,0.6025391-0.2838135,0.9025269-0.4274902 c16.3865356,40.6064453,32.7752686,81.2147141,49.1630859,121.8216476 c-9.1170044-41.3866577-18.2335815-82.7712936-27.3485718-124.1563034c0.3250122-0.0715942,0.6497192-0.1437988,0.9743652-0.2159424 c9.5440674,43.3198242,19.0855713,86.6372604,28.6275024,129.9558105c0.2681274,0.6643677,0.5362549,1.3287964,0.8043823,1.9931641 c0-50.2349854,0-100.4632492,0-150.6975708c0.1734619-0.1151733,0.3464355-0.2310791,0.515625-0.3528442 c0.1650391-0.1190186,0.3265991-0.246521,0.484375-0.3809204c0,51.3060303,0,102.6064453,0,153.9092407 c0.2451172,0.6074219,0.4902344,1.2147827,0.7353516,1.8221436c4.8455811-46.5980835,9.6906128-93.1888962,14.5361328-139.7860718 c0.3291016,0.0997314,0.668457,0.1705322,0.9798584,0.239563c-4.7441406,45.6194458-9.4882812,91.239563-14.2327881,136.859375 c15.081604-46.3170166,30.1619263-92.6319504,45.2416992-138.9512939c0.116272,0.0866699,0.2404785,0.1618042,0.3707275,0.223999 c-0.0039062,0-0.0078125,0-0.0117188,0c0.1739502,0.0960083,0.348999,0.1902466,0.5247803,0.2833862 c-15.5341797,47.7108765-31.0665894,95.4234619-46.6003418,143.1340332c0.1721191,0.4265137,0.3442383,0.8530273,0.5163574,1.279541 c0.006958-0.0081177,0.0139771-0.0162354,0.0209351-0.024353c0.4700317-0.8746948,0.9400024-1.7496338,1.4100342-2.6242676 c26.8308716-49.9414062,53.6634521-99.8832321,80.4943237-149.8214111c0.2766724,0.1908569,0.5527344,0.3825684,0.8283691,0.5749512 c-26.5679321,49.4481812-53.135498,98.8953857-79.7029419,148.3446655 c37.4331665-43.5665283,74.8632812-87.1292038,112.2989502-130.6958618c0.2282715,0.1884766,0.460022,0.3725586,0.6958618,0.5505371 c0.0300903,0.0227661,0.0601196,0.0455322,0.0901489,0.0682983 c-38.1960449,44.4536743-76.3927002,88.9082642-114.5894165,133.3605957c0.1104126-0.024353,0.2208862-0.048645,0.3312988-0.072998 c43.3380127-30.0447388,86.6762695-60.0893555,130.012146-90.1339645c0.1387939,0.3085327,0.2796631,0.616272,0.4226685,0.9230957 c-42.6218262,29.5494919-85.2409668,59.0963058-127.8601074,88.6437302 c50.7525024-11.1795654,101.5031738-22.3582764,152.2594604-33.5388794c0.0108643,0.038269,0.0217285,0.0766602,0.0325317,0.1148682 c0.0796509,0.2826538,0.1602783,0.5648193,0.2414551,0.8469238 c-51.5648193,11.3588867-103.1299438,22.7175903-154.6956177,34.0761108 c-0.3308105,0.2293091-0.6616821,0.4586792-0.9924927,0.6880493c64.1781616,0,128.3549805,0,192.5342407,0 c0.078064,0.3322754,0.1559448,0.6658325,0.2328491,1c-64.3829346,0-128.7635498,0-193.1445312,0 c0.0726929,0.1802368,0.1455078,0.3604736,0.2182007,0.5407104c0.6765747,0.3634644,1.3530273,0.7269897,2.0296021,1.0904541 c72.0493774,7.4928589,144.0974731,14.9868164,216.1508179,22.4786377c1.7539062,0.1835938,3.515625,0.3671875,5.2695312,0.5507812 C457.0065002,238.0744934,457.2565002,238.3791809,457.2096252,238.6330872z M229.9909363,208.6656189 c0,0.3494263,0,0.6988525,0,1.0482788c0.0706787,0.3209839,0.1414185,0.6420898,0.2121582,0.9630737 c0.0892944-0.2740479,0.1784668-0.5481567,0.2677002-0.8222046 C230.3108215,209.4584045,230.1508484,209.0620422,229.9909363,208.6656189z M221.2325745,213.5553894 c0.267334-0.0588989,0.534668-0.1177368,0.802002-0.1766357c-0.8335571,0-1.6672363,0-2.5007935,0 C220.1000671,213.4376526,220.6662903,213.4964905,221.2325745,213.5553894z M228.764801,214.3387146 c0.0753784-0.0522461,0.1507568-0.1044312,0.2261353-0.1567383c0-0.0905762,0-0.1811523,0-0.2717285 c-0.4730225-0.1771851-0.946106-0.3543091-1.4191284-0.5314941c-0.2980347,0-0.5960693,0-0.894104,0 c-0.7636719,0.1682129-1.5274048,0.3364868-2.2910767,0.5046997 C225.8459778,214.0352478,227.3054504,214.1869202,228.764801,214.3387146z M233.2749939,216.8037415 c-0.2175903-0.1869507-0.4351196-0.3739624-0.652771-0.5609131c0.3401489,0.4906006,0.6802368,0.9811401,1.0203247,1.4716797 C233.52005,217.4109192,233.3974915,217.1073914,233.2749939,216.8037415z M21.2799397,193.2268372 c-0.046875,0.2539062,0.203125,0.5585938,0.5703125,0.5976562c2.546875,0.265625,5.0976562,0.53125,7.6484375,0.796875 c1.0462036,0.1087646,2.0947876,0.2177734,3.1410503,0.3265381c-0.0229492-0.3363647-0.0360107-0.6729736-0.0314941-1.0101318 c-3.5211163-0.3660278-7.041563-0.7319336-10.5626812-1.0976562 C21.6783772,192.8010559,21.3346272,192.9455872,21.2799397,193.2268372z M332.2514954,26.7312984 c0.15625-0.2460938,0.1328125-0.5820312-0.1289062-0.7460938c-0.21875-0.1328125-0.5625-0.0820312-0.6914062,0.15625 c-0.6171875,1.1523438-1.234375,2.3046875-1.8554688,3.453125c-4.5239258,8.420042-9.0504761,16.8449078-13.5744019,25.2650127 c0.2860718,0.1730347,0.5719604,0.3466187,0.8575439,0.5206299 C321.9908142,45.8285866,327.1196594,36.2828712,332.2514954,26.7312984z M173.7115784,66.538063 c-6.098999-15.1136513-12.2000732-30.2328529-18.2984009-45.3461914c-0.1171875-0.0195312-0.2304688-0.0429688-0.3398438-0.0703125 c-0.2070312,0.1210938-0.4140625,0.2382812-0.6210938,0.3554688c6.100647,15.1174316,12.2038574,30.2415161,18.3043213,45.3588257 C173.0740662,66.7325211,173.3923645,66.6344376,173.7115784,66.538063z M439.4888,291.684967 c-4.0585938-1.5234375-8.1210938-3.0429688-12.1835938-4.5664062c-4.5606079-1.708252-9.1216431-3.4163818-13.682373-5.1244507 c-0.1213379,0.3106079-0.2426758,0.6206665-0.364502,0.9310913c8.6132202,3.225708,17.2384033,6.4559937,25.8515625,9.6816406 c0.0618896,0.0241699,0.1265869,0.0358887,0.1906128,0.0358887c0.1945801,0,0.3823853-0.1084595,0.461731-0.3054199 C439.8638,292.091217,439.7466125,291.778717,439.4888,291.684967z M384.5141296,272.072113 c-0.0097656,0.0255737-0.0194092,0.0510864-0.0291138,0.0767212c4.8994141,1.8348999,9.789856,3.6665039,14.68927,5.5014038 c0.1210938-0.3085938,0.2460938-0.6210938,0.3710938-0.9296875c-4.9001465-1.8345337-9.8005981-3.6695557-14.7003784-5.5043945 C384.7344666,271.5014343,384.624176,271.7867737,384.5141296,272.072113z M352.1225281,259.7257385 c-0.034729,0.0877686-0.0697021,0.175293-0.1045532,0.2630615c7.8615112,2.9443359,15.7275391,5.8903809,23.5889282,8.8345947 c0.1289062-0.3085938,0.2539062-0.6171875,0.3789062-0.9257812c-7.8458862-2.93927-15.6912231-5.8771362-23.5371094-8.8153687 C352.339447,259.2965393,352.2307434,259.5109558,352.1225281,259.7257385z M66.466095,152.2009583 c0.03125-0.0664062,0.0585938-0.1328125,0.0898438-0.1992188c-10.7957764-4.0419312-21.5930176-8.0855713-32.3908081-12.1293945 c-0.1228027,0.3098755-0.2456665,0.619812-0.3685913,0.9298096c10.7819824,4.0376587,21.5632935,8.0761719,32.3453369,12.1136475 C66.247345,152.6775208,66.35672,152.4392395,66.466095,152.2009583z M31.7563801,138.9702454 c-10.2509155-3.8390503-20.5021362-7.6781616-30.7512207-11.5153732c-0.3164062-0.1640625-0.8046875-0.2578125-0.96875,0.1523438 c-0.1015625,0.2460938,0.015625,0.5585861,0.2734375,0.6523361c4.7226562,1.7695312,9.4414062,3.5390625,14.1640625,5.3085938 c5.6175537,2.1022949,11.2336426,4.2050171,16.8511963,6.3085327 C31.4686604,139.5745544,31.6125813,139.2724915,31.7563801,138.9702454z M279.6404114,62.0613747 c2.7481689-8.4403076,5.494812-16.8757935,8.2432251-25.315918c-0.0351562-0.0429688-0.0703125-0.0859375-0.1054688-0.1289062 c-0.2578125-0.1328125-0.515625-0.2695312-0.7695312-0.4101562c-2.8078613,8.625-5.6147461,17.246521-8.4226074,25.8712769 c0.1500244-0.0166016,0.3025513-0.026001,0.4577637-0.0353394C279.242157,62.0291481,279.4414978,62.0379982,279.6404114,62.0613747 z M291.9892883,24.1399899c1.5715942-4.8259888,3.1422729-9.6495972,4.7139282-14.4755249 c0.0820312-0.2617188-0.0976562-0.546875-0.3515625-0.6171875c-0.2695312-0.0742188-0.53125,0.0898438-0.6132812,0.3476562 c-1.5516357,4.7659302-3.1053467,9.5380249-4.6570435,14.3039551c0.2280884,0.111145,0.4562988,0.2220459,0.6843872,0.3327637 C291.8402405,24.0678463,291.9147034,24.103857,291.9892883,24.1399899z" fill="#568738"/></g><g id="change1_2"><path d="M360.8956604,206.1141663c0,68.7147827-58.6757812,124.421814-131.0546875,124.421814 S98.7862854,274.828949,98.7862854,206.1141663c0-68.7149048,58.6757812-124.4219284,131.0546875-124.4219284 S360.8956604,137.3992615,360.8956604,206.1141663z" fill="#568738"/></g><g id="change2_1"><path d="M370.7095642,289.120575c0,0,0,0.0039062-0.0039062,0.0039062 c-1.2539062-0.6992188-2.5039062-1.3945312-3.7578125-2.0859375c-9.5507812-5.1054688-18.6210938-11.2265625-28.6796875-15.3085938 c-8.09375-2.75-16.5351562-4.59375-24.3046875-8.265625c-13.1601562-6.1171875-24.0742188-16.3203125-37.3828125-22.2304688 c-4.8125-2.375-10.09375-3.40625-15.4335938-3.5703125c-3.4375-0.2109375-6.9609375-0.2304688-10.2773438,0.8164062 c-6.5859375,1.8476562-12.3203125,5.6484375-18.1015625,9.1796875c-1.6914062,1.0039673-3.3945312,1.9882812-5.1054688,2.9570312 c0.0042725-3.5605469,0.0084229-7.1210938,0.0120239-10.682251c-0.0927124,0.0425415-0.1852417,0.085022-0.2776489,0.1275635 c-0.2404175,0.1113892-0.4810791,0.2227783-0.7219849,0.3340454c-0.0037231,3.5942383-0.0076904,7.1889648-0.0123901,10.7831421 c-2.6679688,1.5078125-5.3515625,2.9921875-8.0234375,4.4960938c-7.5898438,4.09375-14.6757812,9.046875-22.4648438,12.7851562 c-1.4101562,0.5859375-2.8476562,1.1132812-4.296875,1.609436c-1.765625-0.8633423-3.5664062-1.6445923-5.4335938-2.296936 c-11.40625-4.0117188-21.4296875-3.8164062-33.0546875-0.953064c-4.5976562,1.015564-9.1953125,2.0429077-13.7460938,3.2616577 c-7.8632812,2.0585938-15.4296875,5.15625-23.4335938,6.6835938c-3.1523438,0.5234375-6.3398438,0.3867188-9.5351562,0.2460938 c-2.421875-0.1054688-4.8515625-0.2109375-7.265625-0.0234375c-3.890625,0.1054688-7.640625,0.9414062-11.3867188,1.84375 c-0.3320312,0.0820312-0.6601562,0.1601562-0.9921875,0.2421875c0.1445312,0.3085938,0.2890625,0.6171875,0.4375,0.9257812 c1.9335938,4.0664062,4.171875,7.9960938,6.6875,11.75c1.1289062,1.8085938,2.2929688,3.5976562,3.4921875,5.3632812 c0.0390625,0.0546875,0.0742188,0.109375,0.1132812,0.1640625c0.1601562,0.2382812,0.328125,0.4765625,0.4921875,0.7148438 c2.3164062,3.3632812,4.7734375,6.6367188,7.3789062,9.7851562c0.234375,0.2851562,0.4726562,0.5703125,0.7109375,0.8554688 c4.5976562,5.46875,9.6484375,10.5429688,15.2148438,15.0351562c11.2265625,8.1953125,23.8242188,14.2265625,36.2304688,20.3945312 c22.796875,10.34375,46.9257812,19.3164062,72.2226562,19.9296875c1.1511841,0.036438,2.3009033,0.0534058,3.4505005,0.0534058 c5.8837891-0.000061,11.7490234-0.4450684,17.6080933-1.010437c7.6835938-0.625,15.5273438-0.9648438,23.1210938-2.4609375 c9.578125-1.9921875,19.1054688-4.5390625,27.9179688-8.8554688c7.9375-3.7890625,15.359375-8.609375,22.4882812-13.734375 c11.5625-8.7382812,22.578125-18.3359375,32.4726562-28.9335938c2.8203125-3.2460938,5.5234375-6.5976562,8.0859375-10.0585938 c0.2109375-0.2773438,0.4140625-0.5585938,0.6171875-0.8398438c1.8398438-2.5039062,3.6015625-5.0664062,5.28125-7.6796875 c0.1835938-0.28125,0.3671875-0.5664062,0.546875-0.8515625 C371.3033142,289.4565125,371.0064392,289.2885437,370.7095642,289.120575z M227.7575989,157.2157898 c-0.3334351,0.0756836-0.666687,0.1517334-0.999939,0.2280884c-0.0007935,0.7359009-0.0014648,1.4721069-0.0022583,2.2079468 c0.333374,0.000061,0.666626,0.0003052,0.9998779,0.0007324C227.756073,158.8397522,227.7568054,158.028595,227.7575989,157.2157898 z M227.7696228,144.6181335c-0.3326416-0.0618896-0.6656494-0.1208496-0.9991455-0.1757202 c-0.0010376,1.1112061-0.0020142,2.2240601-0.0030518,3.3352661c0.3328857-0.0679932,0.6658936-0.1344604,0.9993896-0.1998901 C227.7677307,146.5910339,227.7686462,145.6048889,227.7696228,144.6181335z" fill="#dcf4ce"/></g><g id="change3_1"><path d="M128.5728455,286.5730896c-2.2929688,0.5859375-4.59375,1.140625-6.8984375,1.6640625 c-0.4101562,0.109375-1.0429688,0.3007812-1.15625-0.2851562c-0.0859375-0.4648438,0.453125-0.609375,0.7773438-0.65625 c4.28125-1.0117188,8.7070312-1.9101562,12.796875-3.5078125c0.546875-0.2929688,1.0273438,0.5507812,0.484375,0.875 C132.6197205,285.4441833,130.6197205,286.0730896,128.5728455,286.5730896z M371.6001892,289.6199646 c-0.1796875,0.2851562-0.3632812,0.5703125-0.546875,0.8515625c-1.6796875,2.6132812-3.4414062,5.1757812-5.28125,7.6796875 c-0.203125,0.28125-0.40625,0.5625-0.6171875,0.8398438c-2.5625,3.4609375-5.265625,6.8125-8.0859375,10.0585938 c-9.8945312,10.5976562-20.9101562,20.1953125-32.4726562,28.9335938c-7.1289062,5.125-14.5507812,9.9453125-22.4882812,13.734375 c-8.8125,4.3164062-18.3398438,6.8632812-27.9179688,8.8554688c-7.59375,1.4960938-15.4375,1.8359375-23.1210938,2.4609375 c-7.0039062,0.6757812-14.015625,1.1796875-21.0585938,0.9570312c-25.296875-0.6132812-49.4257812-9.5859375-72.2226562-19.9296875 c-12.40625-6.1679688-25.0039062-12.1992188-36.2304688-20.3945312 c-5.5664062-4.4921875-10.6171875-9.5664062-15.2148438-15.0351562c-0.2382812-0.2851562-0.4765625-0.5703125-0.7109375-0.8554688 c-2.6054688-3.1484375-5.0625-6.421875-7.3789062-9.7851562c-0.1640625-0.2382812-0.3320312-0.4765625-0.4921875-0.7148438 c-0.0390625-0.0546875-0.0742188-0.109375-0.1132812-0.1640625c-1.1992188-1.765625-2.3632812-3.5546875-3.4921875-5.3632812 c-2.515625-3.7539062-4.7539062-7.6835938-6.6875-11.75c-0.1484375-0.3085938-0.2929688-0.6171875-0.4375-0.9257812 c0.3320312-0.0820312,0.6601562-0.1601562,0.9921875-0.2421875c3.7460938-0.9023438,7.4960938-1.7382812,11.3867188-1.84375 c5.6015625-0.4296875,11.2617188,0.703125,16.8007812-0.2226562c8.0039062-1.5273438,15.5703125-4.625,23.4335938-6.6835938 c4.5507812-1.21875,9.1484375-2.2460938,13.7460938-3.2617188c11.625-2.8632812,21.6484375-3.0585938,33.0546875,0.953125 c1.8671875,0.6523438,3.6679688,1.4335938,5.4335938,2.296875c1.4492188-0.4960938,2.8867188-1.0234375,4.296875-1.609375 c7.7890625-3.7382812,14.875-8.6914062,22.4648438-12.7851562c2.671875-1.5039062,5.3554688-2.9882812,8.0234375-4.4960938 c0.0117188-8.9726562,0.0195312-17.9453125,0.0273438-26.9179688c0.0117188-9.2304688,0.0195312-18.4648438,0.03125-27.6953125 c0-0.1367188,0-0.2773438,0-0.4140625c-0.0117188-0.1992188-0.0273438-0.4101562,0-0.59375 c0.0039062-6.2539062,0.0117188-12.5117188,0.0195312-18.765625c-9.7265625,0-19.4492188,0-29.1757812,0 c-0.3320312,0-0.6679688,0-1,0c0-0.3320312,0-0.6679688,0-1c0-1.1015625,0-2.203125,0-3.3046875c0-0.3320312,0-0.6679688,0-1 c0.3320312,0,0.6679688,0,1,0c3.5507812,0,7.0976562,0,10.6484375,0c6.1796875,0,12.3554688,0,18.53125,0 c0.0117188-11.3710938,0.0195312-22.7460938,0.03125-34.1171875c0-0.3320312,0-0.6679688,0-1c0.3320312,0,0.6679688,0,1,0 c1.25,0,2.5039062,0,3.7539062,0c0.3320312,0,0.6679688,0,1,0c0,0.3320312,0,0.6679688,0,1c0,11.375,0,22.7460938,0,34.1171875 c3.6875,0,7.3710938,0,11.0546875,0c5.7265625,0,11.4492188,0,17.1796875,0c0.3320312,0,0.6679688,0,1,0 c0,0.3320312,0,0.6679688,0,1c0,1.1015625,0,2.203125,0,3.3046875c0,0.3359375,0,0.6679688,0,1c-0.2226562,0-0.4492188,0-0.671875,0 c-0.109375,0-0.21875,0-0.328125,0c-9.4101562,0-18.8242188,0-28.234375,0c0,15.3125,0,30.625,0,45.9375 c0,8.359375,0,16.71875,0,25.0703125c0.078125-0.046875,0.1601562-0.09375,0.2382812-0.140625 c5.78125-3.53125,11.515625-7.3320312,18.1015625-9.1796875c3.3164062-1.046875,6.8398438-1.0273438,10.2773438-0.8164062 c5.3398438,0.1640625,10.6210938,1.1953125,15.4335938,3.5703125c13.3085938,5.9101562,24.2226562,16.1132812,37.3828125,22.2304688 c7.7695312,3.671875,16.2109375,5.515625,24.3046875,8.265625c10.0585938,4.0820312,19.1289062,10.203125,28.6796875,15.3085938 c1.2539062,0.6914062,2.5039062,1.3867188,3.7578125,2.0859375c0.0039062,0,0.0039062-0.0039062,0.0039062-0.0039062 C371.0064392,289.2879333,371.3033142,289.4559021,371.6001892,289.6199646z M106.7095642,307.4988708 c6.7695312-1.7695312,13.3671875-4.1484375,19.7421875-7.0625c9.0429688-4.2148438,17.8320312-8.9335938,26.6640625-13.5703125 c-5.1601562,1.3046875-10.2109375,3.1992188-15.1523438,5.0742188c-0.875,0.3125-1.640625,0.7890625-2.453125,1.0664062 c-0.1445312,0-0.2851562-0.0625-0.3867188-0.1835938c-1.046875-1.15625,6.7617188-3.2265625,7.7226562-3.7304688 c4.4375-1.6679688,9.0273438-3.1367188,13.7109375-4.0273438c6.1054688-3.1796875,12.25-6.28125,18.5273438-9.1171875 c-7.6132812-0.6328125-15.2734375,1.8046875-22.7539062,4.3945312c-2.9101562,0.9179688-5.8554688,1.7226562-8.8164062,2.4453125 c-0.2578125,0.0625-0.5429688-0.0664062-0.6210938-0.3398438c-0.0742188-0.2539062,0.0742188-0.5546875,0.3359375-0.6210938 c4.078125-0.9882812,8.1054688-2.1757812,12.0898438-3.4921875c6.8125-2.5039062,14.375-4.1796875,21.5546875-3.1757812 c4.421875-1.8671875,9.0820312-3.1367188,13.640625-4.6367188c-0.1523438-0.0703125-0.3046875-0.140625-0.4609375-0.2109375 c-9.3164062-4.09375-19.7851562-5.8320312-29.8046875-3.8125c-10.515625,1.8945312-20.90625,4.46875-31.0664062,7.7695312 c-6.734375,2.1171875-13.609375,4.484375-20.7695312,3.7851562c-4.7109375-0.21875-9.4257812-0.2851562-14.0664062,0.4296875 c-1.96875,0.4023438-3.9257812,0.84375-5.8828125,1.2890625c1.84375,3.8671875,3.9609375,7.6054688,6.3671875,11.171875 c1.2421875,2.0195312,2.53125,4.0039062,3.8671875,5.9570312c8.296875-1.59375,16.890625-1.359375,24.9921875-3.9804688 c0.578125-0.2382812,0.984375,0.6757812,0.3867188,0.9179688c-8.0351562,2.625-16.53125,2.4726562-24.765625,3.953125 C101.6353455,301.1394958,104.1001892,304.3816833,106.7095642,307.4988708z M370.1626892,289.9715271 c-2.4765625-1.390625-4.9453125-2.78125-7.4179688-4.15625c-7.6796875-4.1679688-15.09375-8.9179688-23.078125-12.4648438 c-8.3125-3.203125-17.1796875-4.8203125-25.2851562-8.6054688c-13.5625-6.046875-24.6289062-16.546875-38.1992188-22.5976562 c-6.8398438-3.3085938-14.7226562-4.0351562-22.203125-3.3554688c-7.9414062,1.5117188-14.6445312,5.9570312-21.4492188,10.1484375 c-0.3320312,0.203125-0.6640625,0.40625-1,0.609375c-1.28125,0.78125-2.5664062,1.546875-3.8671875,2.2773438 c-0.3320312,0.1875-0.6640625,0.3710938-1,0.5507812c-0.5195312,0.2851562-1.0429688,0.5585938-1.5664062,0.828125 c-9.3046875,4.9414062-18.1015625,10.7851562-27.4375,15.6601562c-1.4648438,0.703125-2.9765625,1.3007812-4.5078125,1.84375 c-0.0742188,0.0273438-0.1484375,0.0507812-0.21875,0.0742188c-0.359375,0.1289062-0.7226562,0.25-1.0859375,0.3710938 c-3.6484375,1.2148438-7.3945312,2.1914062-10.96875,3.5390625c-0.703125,0.2578125-1.4023438,0.5234375-2.1015625,0.796875 c-0.2382812,0.09375-0.4804688,0.1875-0.71875,0.2851562c-0.1015625,0.0390625-0.203125,0.0820312-0.3046875,0.1210938 c-0.234375,0.09375-0.4648438,0.1875-0.6953125,0.2851562c-4.9960938,2.0625-9.8359375,4.5039062-14.6054688,7.0078125 c-0.859375,0.4492188-1.7226562,0.9023438-2.5859375,1.3476562c-0.8515625,0.4492188-1.703125,0.8945312-2.5585938,1.3320312 c-0.0742188,0.0429688-0.1484375,0.0820312-0.2265625,0.1171875c-7.9179688,4.125-15.859375,8.1992188-23.8046875,12.2695312 c-8.2382812,4.2304688-16.8984375,7.703125-25.8515625,10.0898438c3.9375,4.625,8.1992188,8.9726562,12.8046875,12.9804688 c9.3632812,7.5546875,20.2539062,12.7578125,30.84375,18.3085938c23.8007812,11.7226562,49.3085938,21.7578125,76.078125,23.2539062 c7.8125,0.3945312,15.6328125-0.0273438,23.3945312-0.8125c14.3789062-0.7734375,28.7070312-2.625,42.2851562-7.5429688 c17.1875-6.3320312,32.234375-17.3203125,45.890625-29.328125c6.9023438-6.0351562,13.7382812-12.2109375,19.6757812-19.2070312 c2.0546875-2.46875,4.0390625-5.0078125,5.9492188-7.6015625c-1.2578125-0.921875-2.5078125-1.8554688-3.7539062-2.7929688 c-8.6640625-6.6757812-18.21875-13.2148438-29.3085938-14.6640625c-0.6210938-0.1289062-0.3984375-1.1445312,0.2265625-0.9765625 c12.9492188,1.671875,23.2304688,10.0390625,33.453125,17.5898438 C366.7642517,295.0730896,368.4986267,292.5457458,370.1626892,289.9715271z"/></g></svg>