<?xml version="1.0" encoding="UTF-8" standalone="no"?><svg xmlns="http://www.w3.org/2000/svg" xmlns:xlink="http://www.w3.org/1999/xlink" fill="#000000" height="501.1" preserveAspectRatio="xMidYMid meet" version="1" viewBox="-0.5 -0.4 339.1 501.1" width="339.1" zoomAndPan="magnify"><g data-name="Layer 3"><g id="change1_1"><path d="M333.34,376.78h0l-34-108.39a7.89,7.89,0,0,1-.31-1.52L275.2,26.47A28.73,28.73,0,0,0,264.32,6.71a29.52,29.52,0,0,0-3.19-2.17A29.82,29.82,0,0,0,242.78.46l-141.34,14A29.86,29.86,0,0,0,81.53,24.81,28.8,28.8,0,0,0,74.61,43.4a26,26,0,0,0,.14,2.92h0A7.54,7.54,0,0,1,69,54.39l-29.13,7a29.86,29.86,0,0,0-18.32,13,28.6,28.6,0,0,0-3.8,22.24l11,46a7.53,7.53,0,0,1-5.07,8.94l-14,4.39a13.45,13.45,0,0,0-8.8,16.88L95.83,475.14a13.33,13.33,0,0,0,6.64,7.91,13.48,13.48,0,0,0,5.3,1.48,7.46,7.46,0,0,1,5.6,3.25,29.43,29.43,0,0,0,24.28,12.53,30.61,30.61,0,0,0,7.06-.83l138.13-33.05a29.92,29.92,0,0,0,18.31-13,28.9,28.9,0,0,0,4.3-11.41,7.69,7.69,0,0,1,1.72-3.79,28.91,28.91,0,0,0,6.48-14.14,7.55,7.55,0,0,1,3.62-5.38,36.22,36.22,0,0,0,16.07-42Z" fill="#ffffff" stroke="#6d6e71" stroke-miterlimit="10" stroke-width="0.5"/></g><g id="change1_2"><path d="M262.22,27.76l38.66,390.43c.87,8.81-5.84,16.69-15,17.6l-141.34,14c-9.16.91-17.29-5.5-18.16-14.31L87.72,45c-.87-8.82,5.84-16.7,15-17.61l141.34-14C253.22,12.53,261.35,18.94,262.22,27.76Z" fill="#ffffff" stroke="#000000" stroke-miterlimit="10"/></g><g id="change2_1"><path d="M117.26,26l41.82,422.35-14.54,1.44c-9.16.91-17.29-5.5-18.16-14.31L87.72,45c-.87-8.82,5.84-16.7,15-17.61Z" fill="#3e3a4e" stroke="#000000" stroke-miterlimit="10"/></g><g id="change2_2"><path d="M262.22,27.76l38.66,390.43c.87,8.81-5.84,16.69-15,17.6l-6.67.66L237.39,14.1l6.67-.66C253.22,12.53,261.35,18.94,262.22,27.76Z" fill="#3e3a4e" stroke="#000000" stroke-miterlimit="10"/></g><g id="change3_1"><path d="M129.61 34.55H231.62V65.35H129.61z" fill="#d3395b" stroke="#000000" stroke-miterlimit="10" stroke-width="0.5" transform="rotate(-5.65 180.773 49.956)"/></g><g id="change1_3"><path d="M201,52.71l91.3,381.57c2.06,8.61-3.53,17.32-12.48,19.47L141.67,486.8c-8.95,2.14-17.87-3.1-19.93-11.71L30.44,93.51C28.37,84.89,34,76.18,42.91,74L181,41C190,38.84,198.91,44.09,201,52.71Z" fill="#ffffff" stroke="#000000" stroke-miterlimit="10"/></g><g id="change2_3"><path d="M57.12,70.64,155.88,483.4l-14.21,3.4c-8.95,2.14-17.87-3.1-19.93-11.71L30.44,93.51C28.37,84.89,34,76.18,42.91,74Z" fill="#3e3a4e" stroke="#000000" stroke-miterlimit="10"/></g><g id="change2_4"><path d="M201,52.71l91.3,381.57c2.06,8.61-3.53,17.32-12.48,19.47l-6.52,1.56L174.52,42.55,181,41C190,38.84,198.91,44.09,201,52.71Z" fill="#3e3a4e" stroke="#000000" stroke-miterlimit="10"/></g><g id="change3_2"><path d="M72.13 70.38H174.14V101.17999999999999H72.13z" fill="#d3395b" stroke="#000000" stroke-miterlimit="10" stroke-width="0.5" transform="rotate(-13.46 123.104 85.757)"/></g><g id="change4_1"><path d="M55.87,126.73H267.33a18.18,18.18,0,0,1,18.18,18.18v281.4a18.18,18.18,0,0,1-18.18,18.18H55.87a.34.34,0,0,1-.34-.34V127.06a.34.34,0,0,1,.34-.34Z" fill="#6eac47" stroke="#000000" stroke-miterlimit="10" transform="rotate(-17.43 170.515 285.602)"/></g><g id="change5_1"><path d="M230.53,337.37a51.35,51.35,0,0,0-17.93-57.15l.06-.08-2.78-1.83a52,52,0,0,0-6.34-3.54,51.19,51.19,0,0,0-26.85-4.61l-.43,0c-1.37.14-2.75.35-4.13.62-1.14.21-2.27.47-3.4.76-1.6.42-3.22.93-4.75,1.49-1,.37-2,.76-2.94,1.19-1.38.6-2.72,1.26-4,2l-.27.16a51.21,51.21,0,0,0-19.49,19.18c-.61,1.07-1.18,2.14-1.71,3.23-.2.42-.4.83-.59,1.26-.31.68-.61,1.36-.88,2.05l-.09.22-1.15,2.87.1,0a51.34,51.34,0,0,0,18,57.14l-.07.09,2.78,1.83c1.33.87,2.73,1.69,4.17,2.45.72.38,1.44.75,2.18,1.09a50.92,50.92,0,0,0,8.21,3l.27.07c.46.13.93.25,1.4.36l.66.15,1,.22,1,.19.7.13,1.23.18.46.07c.48.07,1,.12,1.43.17l.27,0c.53.06,1.06.1,1.59.14h.12c.56,0,1.12.06,1.68.08h0a51.49,51.49,0,0,0,6.91-.23h0l.29,0c.69-.07,1.39-.17,2.09-.27l.64-.11c.47-.07.93-.15,1.39-.24l.32-.05.85-.19.54-.11,1.41-.34.3-.08,1-.26c.33-.1.67-.19,1-.3l.42-.12.5-.17.79-.26c.36-.12.71-.24,1.05-.37l.59-.23c.38-.14.76-.28,1.13-.44l.68-.29c.28-.12.57-.23.85-.36l.11-.05c.47-.21.94-.44,1.4-.66l.44-.21c.6-.3,1.2-.61,1.79-.94s1.26-.7,1.87-1.07h0c.48-.29.95-.59,1.43-.9l.09-.06c.44-.29.89-.59,1.32-.89l.15-.11c.42-.29.83-.59,1.24-.9l.2-.15c.39-.3.77-.59,1.15-.9l.24-.19,1.08-.9.26-.23c.35-.3.69-.61,1-.92l.26-.25,1-.93.26-.26c.32-.32.64-.65.95-1a2.73,2.73,0,0,0,.23-.25c.32-.33.63-.67.94-1,.07-.07.13-.15.19-.22.32-.36.63-.72.94-1.09l.12-.16q.49-.59,1-1.2l0,0a51.82,51.82,0,0,0,3.83-5.72c.27-.46.53-.94.79-1.41.89-1.68,1.69-3.39,2.39-5.1v0l1.24-3.08Zm-8.76,4.94-.13.25c-.25.47-.5.93-.77,1.38s-.64,1.09-1,1.63c-.08.11-.15.23-.23.35l-.83,1.23-.27.39c-.35.49-.71,1-1.07,1.45l0,.05q-.57.73-1.17,1.44l-.31.37c-.31.36-.62.71-.94,1l-.35.38c-.4.42-.8.84-1.22,1.25l-.06.06c-.45.45-.92.88-1.39,1.31l-.24.21c-.4.36-.81.71-1.23,1.06l-.14.11a56.09,56.09,0,0,0,2.42-6,58.82,58.82,0,0,0,2.41-10.15,58.76,58.76,0,0,1,7,1.27C222.1,341.67,221.94,342,221.77,342.31Zm-44.9,24-.62-.07-1.4-.2-.46-.07c-.6-.1-1.2-.21-1.79-.33l-.5-.11-1.37-.32-.55-.14-1.61-.46-.19-.06c-.61-.19-1.21-.39-1.81-.6l-.4-.15c-.49-.18-1-.37-1.46-.57l-.38-.15c-.6-.25-1.19-.51-1.78-.79s-1-.45-1.42-.69l-.27-.14-.93-.5a58.34,58.34,0,0,1,5.22-5.21,59.09,59.09,0,0,0,7.84,7,56.47,56.47,0,0,0,5.64,3.7l-.31,0C177.83,366.37,177.35,366.32,176.87,366.27Zm-25.06-32.34A64.72,64.72,0,0,0,161.16,351a64.36,64.36,0,0,0-6.46,6.55,45.32,45.32,0,0,1-15.08-19.79Zm40.36,30.95A46,46,0,0,1,182,360.77a49.15,49.15,0,0,1-5.77-3.7,50.84,50.84,0,0,1-6.07-5.31,62.17,62.17,0,0,1,8.17-4.93,65.27,65.27,0,0,1,7.22-3.13Zm12.16-11.12a46,46,0,0,1-6.22,9.43h0l-6.7-21.33a66.45,66.45,0,0,1,7.72-1.57,64,64,0,0,1,9.75-.62,50.85,50.85,0,0,1-4.55,14.09Zm-6.06-19.58a70.83,70.83,0,0,0-8.71,1.78l-4-12.64,22.25-7a56.88,56.88,0,0,1,1.72,17.17A70.34,70.34,0,0,0,198.27,334.18Zm-14.52-16.74-4-12.64h0a71.86,71.86,0,0,0,8.16-3.51,70.67,70.67,0,0,0,9.66-5.91,57.07,57.07,0,0,1,8.4,15.07Zm1.4-21.66a66.09,66.09,0,0,1-7.22,3.13h0l-6.7-21.34h0a45.7,45.7,0,0,1,10.49,4.19,48.78,48.78,0,0,1,5.77,3.7,50,50,0,0,1,6,5.26A62.77,62.77,0,0,1,185.15,295.78Zm-25.77-7a45.2,45.2,0,0,1,6-9.2L172,300.75a64.12,64.12,0,0,1-17.23,2.19,50.48,50.48,0,0,1,1.95-7.84A48.93,48.93,0,0,1,159.38,288.78Zm5.81,19.65a71.36,71.36,0,0,0,8.7-1.78l4,12.64-22,6.9a56.63,56.63,0,0,1-1.71-17.08A69.7,69.7,0,0,0,165.19,308.43Zm14.52,16.74,4,12.64a71.86,71.86,0,0,0-8.16,3.51,70.25,70.25,0,0,0-9.46,5.77,57.33,57.33,0,0,1-8.35-15ZM215.82,334a64.72,64.72,0,0,0-2.08-19.46l11.95-3.75a45.27,45.27,0,0,1-1.07,24.85A62.38,62.38,0,0,0,215.82,334Zm8-29.1L211.9,308.6a64.68,64.68,0,0,0-9.42-17.15,62.14,62.14,0,0,0,6.29-6.39A45.22,45.22,0,0,1,223.84,304.85Zm-22.93-24.5c.89.42,1.76.87,2.62,1.34a60.14,60.14,0,0,1-5,5.06,56.73,56.73,0,0,0-13.25-10.54A45.28,45.28,0,0,1,200.91,280.35Zm-58.32,18.32A45,45,0,0,1,153.4,286a57.34,57.34,0,0,0-4.94,16.51,55.93,55.93,0,0,1-7.26-1.3C141.63,300.38,142.09,299.52,142.59,298.67ZM138.83,307a64.62,64.62,0,0,0,9,1.68A64.69,64.69,0,0,0,150,328.05l-12.19,3.82A45.27,45.27,0,0,1,138.83,307Z" fill="#6eac47" stroke="#000000" stroke-linejoin="round" stroke-width="0.75"/></g><g id="change5_2"><path d="M72.55,267.54l-7.06,2.22L55.8,238.88,67,235.36q4.57-1.44,7.85.5c2.19,1.29,3.79,3.58,4.82,6.86s1,6.06,0,8.38S76.56,255,73.51,256l-4.17,1.32Zm-5.25-16.7,2.34-.74q3.9-1.22,2.68-5.07t-5.09-2.63l-2.34.74Z" fill="#6eac47" stroke="#000000" stroke-miterlimit="10" stroke-width="0.75"/></g><g id="change5_3"><path d="M100.29,253.07l-10.08,3.16.07,5.87-7.52,2.36.63-34.11,7.7-2.42,20,27.63-7.53,2.36Zm-3.79-5.52-6.39-9.28.06,11.27Z" fill="#6eac47" stroke="#000000" stroke-miterlimit="10" stroke-width="0.75"/></g><g id="change5_4"><path d="M121.34,227a8.9,8.9,0,0,0-2.8-.85,5.68,5.68,0,0,0-2.39.19,3.45,3.45,0,0,0-2,1.43,2.53,2.53,0,0,0-.26,2.2,2.16,2.16,0,0,0,.85,1.21,4,4,0,0,0,1.43.57,10,10,0,0,0,1.79.18c.65,0,1.3,0,1.94.06a11.36,11.36,0,0,1,6.16,1.92,9.86,9.86,0,0,1,3.39,5.21,12.89,12.89,0,0,1,.65,4.52,9.32,9.32,0,0,1-1,3.94,9.76,9.76,0,0,1-2.64,3.17,13,13,0,0,1-4.2,2.15,15.78,15.78,0,0,1-10.64-.49l1-7.42a12.86,12.86,0,0,0,3.87,1.4,7.13,7.13,0,0,0,3.31-.19,3.54,3.54,0,0,0,2.29-1.71,3.06,3.06,0,0,0,.2-2.31,3.24,3.24,0,0,0-.6-1.14,2.67,2.67,0,0,0-1-.72,6.12,6.12,0,0,0-1.57-.38c-.61-.08-1.35-.14-2.21-.2-1,0-2-.13-3-.25a8.66,8.66,0,0,1-2.83-.84,7.54,7.54,0,0,1-2.43-2,10.12,10.12,0,0,1-1.82-3.59,12.92,12.92,0,0,1-.64-4.36A9.71,9.71,0,0,1,107,225a8.62,8.62,0,0,1,2.3-3,10.48,10.48,0,0,1,3.67-2,16.16,16.16,0,0,1,4.41-.69,18.71,18.71,0,0,1,4.8.54Z" fill="#6eac47" stroke="#000000" stroke-miterlimit="10" stroke-width="0.75"/></g><g id="change5_5"><path d="M142.79,220.26a8.93,8.93,0,0,0-2.8-.86,5.84,5.84,0,0,0-2.39.19,3.51,3.51,0,0,0-2,1.44,2.51,2.51,0,0,0-.26,2.19,2.15,2.15,0,0,0,.86,1.22,4.23,4.23,0,0,0,1.42.57,9.14,9.14,0,0,0,1.79.17c.65,0,1.3,0,1.94.07a11.36,11.36,0,0,1,6.16,1.91,9.85,9.85,0,0,1,3.39,5.21,12.92,12.92,0,0,1,.65,4.52,9.42,9.42,0,0,1-1,3.94,9.71,9.71,0,0,1-2.65,3.17,12.8,12.8,0,0,1-4.2,2.15,15.75,15.75,0,0,1-10.63-.48l1-7.42a12.82,12.82,0,0,0,3.87,1.39,7,7,0,0,0,3.31-.18,3.54,3.54,0,0,0,2.29-1.71,3.25,3.25,0,0,0-.39-3.45,2.68,2.68,0,0,0-1-.72,6.12,6.12,0,0,0-1.56-.39c-.62-.07-1.36-.14-2.22-.2-1,0-2-.12-3-.24a8.71,8.71,0,0,1-2.84-.84,7.67,7.67,0,0,1-2.43-2,10.37,10.37,0,0,1-1.82-3.59,13,13,0,0,1-.64-4.37,9.71,9.71,0,0,1,.87-3.78,8.59,8.59,0,0,1,2.3-3,10.41,10.41,0,0,1,3.67-2,15.79,15.79,0,0,1,4.41-.69,17.87,17.87,0,0,1,4.8.54Z" fill="#6eac47" stroke="#000000" stroke-miterlimit="10" stroke-width="0.75"/></g><g id="change5_6"><path d="M163.61,239l-7.06,2.21-9.69-30.87,11.23-3.53c3-1,5.66-.79,7.85.51s3.79,3.57,4.82,6.85,1,6.07,0,8.38-3.1,3.94-6.15,4.9l-4.18,1.31Zm-5.25-16.71,2.34-.74c2.59-.81,3.49-2.5,2.68-5.06s-2.5-3.45-5.09-2.63l-2.34.73Z" fill="#6eac47" stroke="#000000" stroke-miterlimit="10" stroke-width="0.75"/></g><g id="change5_7"><path d="M173.08,219a19.19,19.19,0,0,1-.89-6.76,16.93,16.93,0,0,1,1.47-6.15,14.68,14.68,0,0,1,3.64-4.94,16,16,0,0,1,12.12-3.81,15,15,0,0,1,5.85,2,16.54,16.54,0,0,1,4.74,4.2,18.93,18.93,0,0,1,3.13,6.06,18.74,18.74,0,0,1,.89,6.76,16.94,16.94,0,0,1-1.48,6.15,14.9,14.9,0,0,1-3.69,5,16,16,0,0,1-12.11,3.8,14.9,14.9,0,0,1-5.82-2,17.23,17.23,0,0,1-4.72-4.21A19.14,19.14,0,0,1,173.08,219Zm7.38-2.31a9.86,9.86,0,0,0,1.68,3.2,9,9,0,0,0,2.51,2.18,7.66,7.66,0,0,0,3,1,7.27,7.27,0,0,0,3.14-.28,7.42,7.42,0,0,0,2.73-1.56,8,8,0,0,0,1.89-2.55,8.79,8.79,0,0,0,.82-3.23,9.41,9.41,0,0,0-.45-3.59,9.76,9.76,0,0,0-1.68-3.2,8.81,8.81,0,0,0-2.52-2.18,8,8,0,0,0-3-1,7.23,7.23,0,0,0-3.13.28,7.42,7.42,0,0,0-2.73,1.56,7.59,7.59,0,0,0-1.87,2.54,9,9,0,0,0-.81,3.22A9.85,9.85,0,0,0,180.46,216.71Z" fill="#6eac47" stroke="#000000" stroke-miterlimit="10" stroke-width="0.75"/></g><g id="change5_8"><path d="M233.21,217.1l-8.78,2.76L214,210.1,217.7,222l-7,2.22L201,193.31l11-3.44a10,10,0,0,1,4.2-.49,8.11,8.11,0,0,1,3.44,1.19,9.53,9.53,0,0,1,2.6,2.51,12.21,12.21,0,0,1,1.72,3.51,10.38,10.38,0,0,1,.3,6.18,7.8,7.8,0,0,1-3.48,4.36Zm-20.87-12.2,1.33-.42a5,5,0,0,0,2.9-2,4.33,4.33,0,0,0-1.78-5.65,5,5,0,0,0-3.51,0l-1.33.42Z" fill="#6eac47" stroke="#000000" stroke-miterlimit="10" stroke-width="0.75"/></g><g id="change5_9"><path d="M237.14,189.42l7.55,24.08-7.05,2.21-7.56-24.07-5.79,1.82-2.14-6.8,18.65-5.85,2.13,6.79Z" fill="#6eac47" stroke="#000000" stroke-miterlimit="10" stroke-width="0.75"/></g></g></svg>